<svg height="42" width="38"><mask id="a" fill="#fff"><path d="M8.8 17.53h22.76v23.7H8.8z" fill-rule="evenodd"/></mask><g fill="none" fill-rule="evenodd"><path d="M27.28 4.29c3.32.8 8.44 5.49 9.72 11.53.98 4.68.82 9.77-1.14 14.08-1.66 3.63-6.54 7.9-10.57 8.95-3.05.79-5.3.97-8.41.56-5.32-.72-9.93-3.59-12.54-8.34a18.72 18.72 0 0 1-.91-15.75S6.58-.64 27.28 4.29" fill="#0096a1"/><path d="M23.11 3.74c6.55 1.2 10.22 8.01 11.43 12 1.35 4.45.81 9.48-1.12 13.66-1.63 3.52-5.68 7.13-9.76 8.33a21.3 21.3 0 0 1-8.93.89c-5.24-.7-9.77-3.48-12.35-8.09-2.58-4.6-3.78-14.17.91-19.95 0 0 6.8-9.22 19.83-6.84" fill="#2fb3c1"/><g fill="#ffdf91"><path d="M7.2 23.7h13.52L29.96 0z" mask="url(#elec_svg__a)" transform="translate(.11 .56)"/><path d="M18.04 17.53 8.8 41.23l22.76-23.7z" mask="url(#a)" transform="translate(.11 .56)"/></g><path d="M26.22 20.96h-5.95l2.16-7.62-10.1 8.89h6.16l-1.1 8.89z" fill="#ffb135"/></g></svg>