<svg xmlns="http://www.w3.org/2000/svg" viewBox="0 0 120 120"><defs><style>.adadfc87-dade-402c-856a-1b6e081bc6ee{isolation:isolate;}.ff3d5c34-47c0-4689-b3f0-410692f37319{fill:#0096a1;}.f244db3b-f1de-450b-873b-f5842ebecfad{fill:#2fb3c1;}.b9e17fa9-43fc-46b1-932f-19c2e37b884a{fill:#ffe29c;}.bf736204-ef53-4149-99df-7074b7fe5ccc{fill:#f29f33;}.a72f84eb-7a30-4f9e-af13-2ca654f4a2cc{fill:#ffdf91;}.a69196cd-6388-40b9-a838-41521d61af28{fill:#ffb135;}.b4e88eff-4b31-4001-b5e8-43cc4defcfb8{fill:#c4c4c4;opacity:0.34;}.b4e88eff-4b31-4001-b5e8-43cc4defcfb8,.b91f728b-d65b-497d-8128-70528e053c2c,.bba017d7-32cd-43c0-93ce-77a14e812c70{mix-blend-mode:multiply;}.b91f728b-d65b-497d-8128-70528e053c2c,.bba017d7-32cd-43c0-93ce-77a14e812c70{fill:#b7b6b2;}.bba017d7-32cd-43c0-93ce-77a14e812c70{opacity:0.33;}.b91f728b-d65b-497d-8128-70528e053c2c{opacity:0.48;}</style></defs><title>icones-ekwateur</title><g class="adadfc87-dade-402c-856a-1b6e081bc6ee"><g id="a379e6c6-a79a-4df3-b484-7b807e392cb5" data-name="Calque 1"><path class="ff3d5c34-47c0-4689-b3f0-410692f37319" d="M28.84,78.41c-.58,0-9.53-.58-9.53-.58a1.3,1.3,0,0,0-1,1.36c0,1.17-.77,5.25,2,6.23s9.34,1.16,9.34,1.16Z"/><path class="f244db3b-f1de-450b-873b-f5842ebecfad" d="M27.28,70.83c.37,1.38,0,3.4-.09,4.81A41.11,41.11,0,0,1,26.31,83c-.52,2.21-2,2.52-4,2.18-.53-.09-3.81-1-3.68-1.79.29.78-.29,5.16,13.13,4.38Z"/><path class="f244db3b-f1de-450b-873b-f5842ebecfad" d="M72,83.21s-.26-18.41.39-21.92c.47-2.53,6-2.28,9-1.95V18.12A2.08,2.08,0,0,0,79.24,16H29.41a2.08,2.08,0,0,0-2.08,2.08v67.7a2.08,2.08,0,0,0,2.08,2.08H57.88C58.83,82.49,72,83.21,72,83.21Z"/><path class="b9e17fa9-43fc-46b1-932f-19c2e37b884a" d="M81.31,85.82V59.34c-3-.33-8.49-.58-9,1.95C71.7,64.8,72,83.21,72,83.21s-13.13-.72-14.08,4.69H79.24A2.08,2.08,0,0,0,81.31,85.82Z"/><path class="bf736204-ef53-4149-99df-7074b7fe5ccc" d="M45.4,51.7l-3.21-3.63a.85.85,0,0,0-1.28,0L37.7,51.7a.85.85,0,0,1-1.49-.57V40.79a.85.85,0,0,1,.85-.85h9a.86.86,0,0,1,.86.85V51.13A.86.86,0,0,1,45.4,51.7Z"/><circle class="a72f84eb-7a30-4f9e-af13-2ca654f4a2cc" cx="41.55" cy="33.11" r="9.13"/><path class="a69196cd-6388-40b9-a838-41521d61af28" d="M37.64,33.28c.68-.59,1.43.65,2.07,1.35.94,1,1.11-.39,2.56-2,1.82-2,3-2.86,3.37-2.53s-.91,2-2.3,3.26c-1,.87-1.62,1.91-2.29,2.56-1.31,1.28-2.51-.95-2.86-1.37S37.39,33.5,37.64,33.28Z"/><path class="b4e88eff-4b31-4001-b5e8-43cc4defcfb8" d="M81.37,85.07V47.59c-3.88-.47-11-.82-11.6,2.77-.84,5-.51,31-.51,31s-17-1-18.23,6.64H78.68A2.82,2.82,0,0,0,81.37,85.07Z"/><path class="a69196cd-6388-40b9-a838-41521d61af28" d="M101.33,82.78s0,.33,0,1.06a.61.61,0,0,0,0-.13c0-2.25-.07-6.65-.07-6.65s-14.61,10.18-28.39-.19L73,83.12h0C87.87,89.66,101.33,82.78,101.33,82.78Z"/><path class="a69196cd-6388-40b9-a838-41521d61af28" d="M87.61,90.63a29.65,29.65,0,0,1-3.87-.1c.06.63.13,1.29.2,2a40.2,40.2,0,0,0,17.43-2.71c0,.14,0,.57.07,1.13,0-1.28,0-2.88-.09-4.1C101.15,88.3,94.09,90.33,87.61,90.63Z"/><path class="a72f84eb-7a30-4f9e-af13-2ca654f4a2cc" d="M101.44,90.91c0,.3,0,.59,0,.84,0,2.25-9.65,4.56-9.65,4.56a42.87,42.87,0,0,1-7.44-.1c0,.32.08.63.11.93,1,.06,2,.09,3,.07,5.53-.07,13.93-1.42,14.06-3.29A21,21,0,0,0,101.44,90.91Z"/><path class="a72f84eb-7a30-4f9e-af13-2ca654f4a2cc" d="M83.94,92.49c.13,1.25.28,2.53.42,3.72a42.87,42.87,0,0,0,7.44.1s9.65-2.31,9.65-4.56c0-.25,0-.54,0-.84,0-.56-.08-1-.07-1.13A40.2,40.2,0,0,1,83.94,92.49Z"/><path class="a72f84eb-7a30-4f9e-af13-2ca654f4a2cc" d="M91.8,88.35a43.24,43.24,0,0,1-8.57-.22,2.62,2.62,0,0,1,.38,1.12C93.34,90.58,101.3,85,101.3,85s0,.76,0,1.79c0,0,0,0,0-.07,0-1.33,0-2.27,0-2.9C101,86.05,91.8,88.35,91.8,88.35Z"/><path class="a72f84eb-7a30-4f9e-af13-2ca654f4a2cc" d="M73,83.12s0,.34,0,.84H73Z"/><path class="a72f84eb-7a30-4f9e-af13-2ca654f4a2cc" d="M83.61,89.25a0,0,0,0,1,0,0c0,.4.07.82.12,1.25a29.65,29.65,0,0,0,3.87.1c6.48-.3,13.54-2.33,13.74-3.82,0-1,0-1.79,0-1.79S93.34,90.58,83.61,89.25Z"/><path class="a72f84eb-7a30-4f9e-af13-2ca654f4a2cc" d="M83.23,88.13a43.24,43.24,0,0,0,8.57.22s9.2-2.3,9.54-4.51c0-.73,0-1.06,0-1.06S87.87,89.66,73,83.11h0L73,84C76.17,84.42,81.71,85.58,83.23,88.13Z"/><path class="a69196cd-6388-40b9-a838-41521d61af28" d="M83.74,90.53c-5.09-.44-10.06-2-10.71-2.87V90.5a43.72,43.72,0,0,0,10.9,2C83.87,91.82,83.8,91.16,83.74,90.53Z"/><path class="bba017d7-32cd-43c0-93ce-77a14e812c70" d="M83.74,90.53c-5.09-.44-10.06-2-10.71-2.87V90.5a43.72,43.72,0,0,0,10.9,2C83.87,91.82,83.8,91.16,83.74,90.53Z"/><path class="a69196cd-6388-40b9-a838-41521d61af28" d="M73.05,92.48l.1.07-.1-1.06Z"/><path class="b91f728b-d65b-497d-8128-70528e053c2c" d="M73.05,92.48l.1.07-.1-1.06Z"/><path class="a72f84eb-7a30-4f9e-af13-2ca654f4a2cc" d="M73.15,92.55l.1,1.07c0,1.37,4.85,3.15,11.22,3.52,0-.3-.07-.61-.11-.93C77.18,95.48,73.73,93,73.15,92.55Z"/><path class="bba017d7-32cd-43c0-93ce-77a14e812c70" d="M73.15,92.55l.1,1.07c0,1.37,4.85,3.15,11.22,3.52,0-.3-.07-.61-.11-.93C77.18,95.48,73.73,93,73.15,92.55Z"/><path class="a72f84eb-7a30-4f9e-af13-2ca654f4a2cc" d="M73,90.47l.1,1v-1Z"/><path class="b91f728b-d65b-497d-8128-70528e053c2c" d="M73,90.47l.1,1v-1Z"/><path class="a72f84eb-7a30-4f9e-af13-2ca654f4a2cc" d="M73,90.5v1l.1,1.06c.58.46,4,2.93,11.21,3.66-.14-1.19-.29-2.47-.42-3.72A43.72,43.72,0,0,1,73,90.5Z"/><path class="bba017d7-32cd-43c0-93ce-77a14e812c70" d="M73,90.5v1l.1,1.06c.58.46,4,2.93,11.21,3.66-.14-1.19-.29-2.47-.42-3.72A43.72,43.72,0,0,1,73,90.5Z"/><path class="a72f84eb-7a30-4f9e-af13-2ca654f4a2cc" d="M73,87.49a.37.37,0,0,0,.08.17V84.8a22.52,22.52,0,0,0,10.59,4.45,2.62,2.62,0,0,0-.38-1.12c-7.13-1-10.18-3.62-10.18-3.62V84H73C73,85,72.9,86.68,73,87.49Z"/><path class="bba017d7-32cd-43c0-93ce-77a14e812c70" d="M73,87.49a.37.37,0,0,0,.08.17V84.8a22.52,22.52,0,0,0,10.59,4.45,2.62,2.62,0,0,0-.38-1.12c-7.13-1-10.18-3.62-10.18-3.62V84H73C73,85,72.9,86.68,73,87.49Z"/><path class="a72f84eb-7a30-4f9e-af13-2ca654f4a2cc" d="M83.74,90.53c0-.43-.09-.85-.12-1.25a0,0,0,0,0,0,0A22.52,22.52,0,0,1,73,84.8v2.86C73.68,88.57,78.65,90.09,83.74,90.53Z"/><path class="bba017d7-32cd-43c0-93ce-77a14e812c70" d="M83.74,90.53c0-.43-.09-.85-.12-1.25a0,0,0,0,0,0,0A22.52,22.52,0,0,1,73,84.8v2.86C73.68,88.57,78.65,90.09,83.74,90.53Z"/><path class="a72f84eb-7a30-4f9e-af13-2ca654f4a2cc" d="M73,84v.55s3,2.66,10.18,3.62C81.71,85.58,76.17,84.42,73,84Z"/><path class="bba017d7-32cd-43c0-93ce-77a14e812c70" d="M73,84v.55s3,2.66,10.18,3.62C81.71,85.58,76.17,84.42,73,84Z"/><path class="a69196cd-6388-40b9-a838-41521d61af28" d="M53.05,92.87l.4,8.43s5.44,4.74,18.75,3.84c0,0,9.65-2.31,9.65-4.56s-.15-6.73-.15-6.73S66.84,103.25,53.05,92.87Z"/><path class="a72f84eb-7a30-4f9e-af13-2ca654f4a2cc" d="M53.35,99.29l.3,3.16c0,1.57,6.42,3.69,14.21,3.59,5.54-.08,13.93-1.42,14.06-3.29.12-1.64-.18-3.79-.14-4.14A42.32,42.32,0,0,1,53.35,99.29Z"/><path class="a72f84eb-7a30-4f9e-af13-2ca654f4a2cc" d="M53.2,89.58s-.28,5.23.15,6.73c.3,1,8.23,3.45,14.66,3.15,6.59-.31,13.77-2.4,13.77-3.89a41,41,0,0,0-.15-4.79A34.17,34.17,0,0,1,53.2,89.58Z"/><path class="a69196cd-6388-40b9-a838-41521d61af28" d="M67.71,85.39s-10-.25-13.64,3.13c0,0-4.74,4.58,6.1,6.11S81,93.84,81.7,91.36,79.83,86,67.71,85.39Z"/><path class="a69196cd-6388-40b9-a838-41521d61af28" d="M72.91,70.89l0,8.26s5.41,2.52,19,1.61c0,0,9.38-1.3,9.38-3.59s0-5.42,0-5.42S87,81.47,72.91,70.89Z"/><path class="a69196cd-6388-40b9-a838-41521d61af28" d="M72.91,57.92l0,8.27s5.41,2.52,19,1.6c0,0,9.27-1.23,9.27-3.52s.07-5.48.07-5.48S87,68.51,72.91,57.92Z"/><path class="a72f84eb-7a30-4f9e-af13-2ca654f4a2cc" d="M73,76.35v4.74c.07.83,7.36,3.06,14.21,2.88,5.83-.15,14.21-2.87,14.21-3.81,0-1.8-.11-3.9-.07-4.26C101.3,75.9,89.13,81.53,73,76.35Z"/><path class="a72f84eb-7a30-4f9e-af13-2ca654f4a2cc" d="M72.91,67.63s.08,4.56,0,6.43c0,.86,8.33,3,14.9,2.71s13.49-2.34,13.49-3.15c0-1.14-.09-5-.09-5A32.54,32.54,0,0,1,72.91,67.63Z"/><path class="a69196cd-6388-40b9-a838-41521d61af28" d="M72.91,61.71v8.17S85,73.13,94.24,71.33c0,0,7-1.49,7-2.39-.13-2.29-.15-6.43-.15-6.43S87,72.3,72.91,61.71Z"/><path class="a72f84eb-7a30-4f9e-af13-2ca654f4a2cc" d="M72.91,62.32s-.07,3.7,0,5.31c0,.86,8.33,2.66,14.9,2.71,6.78,0,13.38-2.27,13.37-3.08,0-1.13,0-5.07,0-5.07A34.83,34.83,0,0,1,72.91,62.32Z"/><path class="a72f84eb-7a30-4f9e-af13-2ca654f4a2cc" d="M72.65,54.69s.1,4.26.3,5.86c.13,1.07,8.16,3.42,14.54,3.12,6.54-.3,13.81-2.26,13.81-3.74V54.77S87.3,62.28,72.65,54.69Z"/><path class="a69196cd-6388-40b9-a838-41521d61af28" d="M87.2,49.71s-10-.25-13.54,3.11c0,0-4.7,4.55,6,6.06s20.84-.75,21.51-3.21S99.22,50.36,87.2,49.71Z"/></g></g></svg>