<svg id="b3f60570-fcb4-4acb-8002-6572c04c9199" data-name="Calque 1" xmlns="http://www.w3.org/2000/svg" viewBox="0 0 120 120"><defs><clipPath id="f53d72ad-78f6-4ef2-b60f-8dcd90fdc2d8"><path class="ea31570d-dd1c-45e6-a2dd-ea80e0800b62" d="M20.26 12.86h81.26v90H20.26z"/></clipPath><clipPath id="a65d7b96-8e96-41cd-bd32-71672cf6fdfb"><path class="ea31570d-dd1c-45e6-a2dd-ea80e0800b62" d="M20.26 12.86h81.26v90H20.26z"/></clipPath><style>.ea31570d-dd1c-45e6-a2dd-ea80e0800b62{fill:none}.f6b42407-996a-4e6e-bad2-ce8c414fab7b{fill:#ffdf91}</style></defs><g style="clip-path:url(#f53d72ad-78f6-4ef2-b60f-8dcd90fdc2d8)" id="ef7cd702-0a9a-4ec6-8e85-1d1d1bcf4c56" data-name="Illustration 61"><g style="clip-path:url(#a65d7b96-8e96-41cd-bd32-71672cf6fdfb)"><path d="M79.07 21.3c7.22 1.73 18.38 12 21.16 25.19 2.15 10.25 1.8 21.38-2.48 30.79-3.6 7.94-14.24 17.27-23 19.56a43 43 0 0 1-18.31 1.22c-11.6-1.56-21.63-7.83-27.33-18.21a41.06 41.06 0 0 1-2-34.44S34 10.53 79.07 21.3" style="fill:#0096a1"/><path d="M70.36 19.85c14.25 2.62 22.24 17.51 24.87 26.21 2.94 9.73 1.77 20.73-2.44 29.87-3.55 7.7-12.37 15.6-21.25 18.2-6.47 1.9-12.79 2.84-19.45 2-11.4-1.52-21.28-7.6-26.89-17.67s-8.22-31 2-43.64c0 0 14.81-20.15 43.18-14.93" style="fill:#2fb3c1"/><path class="f6b42407-996a-4e6e-bad2-ce8c414fab7b" d="M35.53 64.68h29.44l20.12-51.82-49.56 51.82z"/><path class="f6b42407-996a-4e6e-bad2-ce8c414fab7b" d="m59.61 51.05-20.13 51.81 49.57-51.81H59.61z"/><path style="fill:#ffb135" d="M75.67 56.5H63.05l4.59-16.36-21.4 19.09h13.04l-2.34 19.09L75.67 56.5z"/></g></g></svg>