<svg id="b12d008b-e772-40d7-b0fb-b032287274e7" data-name="Calque 1" xmlns="http://www.w3.org/2000/svg" viewBox="0 0 120 120"><defs><clipPath id="acaad496-153c-40a2-8d60-4a7ab300244f"><path style="fill:none" d="M21.22 14.4h77.13v90H21.22z"/></clipPath><style>.ac4a0422-7dbe-4bba-b74a-3b53c23f9c2b{clip-path:url(#acaad496-153c-40a2-8d60-4a7ab300244f)}</style></defs><g class="ac4a0422-7dbe-4bba-b74a-3b53c23f9c2b" id="ea05d6c8-b139-40e9-8068-03c63f493780" data-name="Illustration 60"><g class="ac4a0422-7dbe-4bba-b74a-3b53c23f9c2b"><path d="M77.05 31.1C83.9 32.73 94.5 42.47 97.13 55c2 9.72 1.71 20.28-2.35 29.22-3.42 7.54-13.52 16.39-21.85 18.56A40.61 40.61 0 0 1 55.54 104c-11-1.48-20.51-7.43-25.92-17.28A39 39 0 0 1 27.74 54s6.52-33.1 49.31-22.87" style="fill:#0096a1"/><path d="M68.78 29.71c13.52 2.49 21.11 16.62 23.6 24.88A40.83 40.83 0 0 1 90.07 83c-3.37 7.3-11.74 14.8-20.17 17.28a43.88 43.88 0 0 1-18.46 1.85c-10.82-1.43-20.2-7.21-25.52-16.77s-7.81-29.48 1.88-41.47c0 0 14.05-19.13 41-14.18" style="fill:#2fb3c1"/><path d="M53.13 14.4C80.22 41 81.19 55.39 81.19 68a22.86 22.86 0 0 1-23.06 23.05c-13.22 0-22.9-12.26-22.9-22.1 0-28.57 29.61-32.68 17.9-54.55" style="fill:#ffdf91"/><path d="M55.74 51C68.93 63.79 69.4 70.68 69.4 76.72a11 11 0 0 1-11.23 11.07C51.73 87.79 47 81.9 47 77.18c0-13.7 14.44-15.67 8.74-26.18" style="fill:#ffb135"/></g></g></svg>