<svg viewBox="0 0 38 44" height="44" width="38"><defs><path id="gaz_svg__a" d="M0 0h34.98v35.36H0z"></path><path id="gaz_svg__c" d="M6.69-7.11H28.8v36.87H6.69z"></path></defs><g transform="translate(.67 7.44)" fill="none" fill-rule="evenodd"><path d="M26.7.94c3.3.79 8.4 5.48 9.66 11.5.98 4.68.82 9.76-1.13 14.06-1.65 3.63-6.5 7.88-10.51 8.93-3.03.8-5.28.97-8.37.56-5.28-.71-9.86-3.58-12.46-8.32a18.75 18.75 0 01-.9-15.72s3.13-15.92 23.7-11" fill="#0096A1"></path><mask id="gaz_svg__b" fill="#fff"><use xlink:href="#gaz_svg__a"></use></mask><path d="M22.88.4c6.5 1.19 10.15 7.99 11.35 11.96A19.7 19.7 0 0133.12 26a16.87 16.87 0 01-9.7 8.31 21.1 21.1 0 01-8.89.9c-5.2-.7-9.71-3.48-12.27-8.07-2.57-4.6-3.76-14.16.9-19.93 0 0 6.76-9.2 19.72-6.82" fill="#2FB3C1" mask="url(#gaz_svg__b)"></path><mask id="gaz_svg__d" fill="#fff"><use xlink:href="#gaz_svg__c"></use></mask><path d="M15.3-7.11c13.03 12.8 13.5 19.72 13.5 25.77a11 11 0 01-11.1 11.1c-6.35 0-11-5.9-11-10.63C6.7 5.39 20.92 3.4 15.3-7.11" fill="#FFDF91" mask="url(#gaz_svg__d)"></path><path d="M16.74 10.46c6.35 6.14 6.57 9.45 6.57 12.36 0 2.9-2.3 5.32-5.4 5.32-3.1 0-5.36-2.83-5.36-5.1 0-6.6 6.93-7.54 4.2-12.58" fill="#FFB135" mask="url(#gaz_svg__d)"></path></g></svg>