<svg xmlns="http://www.w3.org/2000/svg" xml:space="preserve" width="591.051" height="137.811"><defs><linearGradient x1="0" y1="0" x2="1" y2="0" gradientUnits="userSpaceOnUse" gradientTransform="rotate(80.457 108.53 -51.725) scale(360.83777)" spreadMethod="pad" id="b"><stop style="stop-opacity:1;stop-color:#2c61af" offset="0"/><stop style="stop-opacity:1;stop-color:#2c61af" offset=".044"/><stop style="stop-opacity:1;stop-color:#93dbde" offset="1"/></linearGradient><linearGradient x1="0" y1="0" x2="1" y2="0" gradientUnits="userSpaceOnUse" gradientTransform="scale(185.85341) rotate(80.457 .321 -.085)" spreadMethod="pad" id="c"><stop style="stop-opacity:1;stop-color:#2c61af" offset="0"/><stop style="stop-opacity:1;stop-color:#2c61af" offset=".044"/><stop style="stop-opacity:1;stop-color:#93dbde" offset="1"/></linearGradient><linearGradient x1="0" y1="0" x2="1" y2="0" gradientUnits="userSpaceOnUse" gradientTransform="matrix(-7.2736 59.28391 -48.70544 .86768 63.399 40.11)" spreadMethod="pad" id="d"><stop style="stop-opacity:1;stop-color:#2c61af" offset="0"/><stop style="stop-opacity:1;stop-color:#93dbde" offset=".4"/><stop style="stop-opacity:1;stop-color:#93dbde" offset="1"/></linearGradient><linearGradient x1="0" y1="0" x2="1" y2="0" gradientUnits="userSpaceOnUse" gradientTransform="matrix(-53.74348 29.09878 -29.09878 -53.73721 96.194 60.75)" spreadMethod="pad" id="e"><stop style="stop-opacity:1;stop-color:#2b60af" offset="0"/><stop style="stop-opacity:1;stop-color:#93dbde" offset=".47"/><stop style="stop-opacity:1;stop-color:#93dbde" offset="1"/></linearGradient><linearGradient x1="0" y1="0" x2="1" y2="0" gradientUnits="userSpaceOnUse" gradientTransform="scale(-61.32722) rotate(-25.971 -2.395 2.203)" spreadMethod="pad" id="f"><stop style="stop-opacity:1;stop-color:#2b60af" offset="0"/><stop style="stop-opacity:1;stop-color:#93dbde" offset=".47"/><stop style="stop-opacity:1;stop-color:#93dbde" offset="1"/></linearGradient><linearGradient x1="0" y1="0" x2="1" y2="0" gradientUnits="userSpaceOnUse" gradientTransform="rotate(90 26.693 35.016) scale(103.24185)" spreadMethod="pad" id="g"><stop style="stop-opacity:1;stop-color:#afd935" offset="0"/><stop style="stop-opacity:1;stop-color:#319e59" offset=".924"/><stop style="stop-opacity:1;stop-color:#319e59" offset="1"/></linearGradient><linearGradient x1="0" y1="0" x2="1" y2="0" gradientUnits="userSpaceOnUse" gradientTransform="rotate(97.18 38.312 54.63) scale(54.49289)" spreadMethod="pad" id="h"><stop style="stop-opacity:1;stop-color:#afd935" offset="0"/><stop style="stop-opacity:1;stop-color:#319e59" offset=".924"/><stop style="stop-opacity:1;stop-color:#319e59" offset="1"/></linearGradient><linearGradient x1="0" y1="0" x2="1" y2="0" gradientUnits="userSpaceOnUse" gradientTransform="scale(-66.12585) rotate(-88.705 -.581 .413)" spreadMethod="pad" id="i"><stop style="stop-opacity:1;stop-color:#afd935" offset="0"/><stop style="stop-opacity:1;stop-color:#319e59" offset=".924"/><stop style="stop-opacity:1;stop-color:#319e59" offset="1"/></linearGradient><clipPath clipPathUnits="userSpaceOnUse" id="a"><path d="M0 121.223h464.496V0H0Z"/></clipPath></defs><g clip-path="url(#a)" transform="matrix(1.33333 0 0 -1.33333 -13.512 148.904)"><path d="M0 0c-.3 7.881-5.405 14.489-14.266 14.489-8.935 0-14.041-6.383-15.091-14.489Zm4.054-3.605h-33.636c.149-9.686 5.931-17.496 15.917-17.496 4.28 0 8.109 1.353 11.865 3.68l2.175-3.153c-4.129-2.778-8.934-4.43-14.115-4.43-13.141 0-19.898 10.438-19.898 21.775 0 11.187 6.232 21.473 19.372 21.473 12.99 0 19.222-10.662 18.32-21.849" style="fill:#3da9ab;fill-opacity:1;fill-rule:nonzero;stroke:none" transform="translate(163.336 57.134)"/><path d="M0 0a13.318 13.318 0 0 0-3.304-1.126l-9.16-1.803V-21.55h-4.129v57.817l4.129.373V1.127l7.359 1.35C2.103 4.431 6.457 8.258 6.758 18.846v1.651h3.979v-1.651c-.224-8.109-3.079-13.514-7.133-16.743L14.492-21.55H9.986" style="fill:#3da9ab;fill-opacity:1;fill-rule:nonzero;stroke:none" transform="translate(191.19 54.355)"/><path d="M0 0c-3.153-19.299-8.257-40.32-17.192-57.815h-4.13c-6.457 12.763-11.188 27.778-14.492 42.121-3.379-14.343-8.11-29.358-14.567-42.121h-4.132C-63.446-40.32-68.552-19.299-71.705 0h4.129c3.003-17.796 7.434-37.017 15.168-53.537 6.757 14.643 11.411 31.385 14.492 47.378h4.129c3.079-15.993 7.734-32.735 14.491-47.378C-11.562-37.017-7.132-17.796-4.129 0" style="fill:#3da9ab;fill-opacity:1;fill-rule:nonzero;stroke:none" transform="translate(278.487 90.621)"/><path d="M0 0c3.903 0 7.808 1.053 11.337 2.778v14.868A24.915 24.915 0 0 1 .074 20.349c-4.505 0-14.566-.376-14.566-9.761C-14.492 3.08-9.911 0 0 0m15.392 24.928V.15C10.963-1.727 7.058-3.828 0-3.828c-12.84 0-18.473 5.256-18.473 14.416C-18.473 21.7-6.908 24.104 0 24.104c4.955 0 8.183-1.052 11.337-2.255v2.18c0 7.657-6.007 11.562-11.713 11.562-3.68 0-7.584-.826-10.962-2.178l-1.501 3.378c3.603 1.577 7.281 2.628 12.538 2.628 6.758 0 15.693-4.729 15.693-14.491" style="fill:#3da9ab;fill-opacity:1;fill-rule:nonzero;stroke:none" transform="translate(298.081 35.958)"/><path d="M0 0v-3.604c-.45-.376-2.705-.976-4.131-.976-6.757 0-12.165 2.251-12.165 12.087v39.045l4.132.376v-9.462H-.526l-.376-3.755h-11.262V7.883c0-6.983 2.552-8.56 8.033-8.56C-2.629-.677-.602-.302 0 0" style="fill:#3da9ab;fill-opacity:1;fill-rule:nonzero;stroke:none" transform="translate(338.775 37.386)"/><path d="M0 0c-.3 7.881-5.405 14.489-14.265 14.489-8.935 0-14.042-6.383-15.092-14.489Zm4.056-3.605h-33.638c.149-9.686 5.931-17.496 15.918-17.496 4.279 0 8.108 1.353 11.862 3.68l2.178-3.153c-4.129-2.778-8.936-4.43-14.116-4.43-13.141 0-19.899 10.438-19.899 21.775 0 11.187 6.234 21.473 19.374 21.473 12.99 0 19.221-10.662 18.321-21.849" style="fill:#3da9ab;fill-opacity:1;fill-rule:nonzero;stroke:none" transform="translate(377.667 57.134)"/><path d="M0 0c-4.656-1.877-8.561-3.979-15.693-3.979-6.758 0-15.918 4.654-15.918 14.492v27.703l4.13.376V11.563C-27.481 3.904-21.25 0-15.618 0c3.904 0 7.959 1.05 11.488 2.779v35.437l4.13.376" style="fill:#3da9ab;fill-opacity:1;fill-rule:nonzero;stroke:none" transform="translate(420.163 36.26)"/><path d="M0 0a27.05 27.05 0 0 1-7.883 1.202c-5.632 0-11.789-3.979-11.789-11.638v-26.955h-4.13V-9.31c0 9.762 8.936 14.492 15.694 14.492 3.829 0 6.832-.602 9.31-1.502" style="fill:#3da9ab;fill-opacity:1;fill-rule:nonzero;stroke:none" transform="translate(452.22 70.197)"/></g><path d="m104.734 89.21.424-.674c.364-.615 2.049-4.679 2.049-4.679 3.776-8.511 5.728-16.767 3.003-29.393-2.027-9.391-2.027-9.391-15.257-27.367.222.112 21.406 17.095 16.685 45.853-.016.071-.015.075-.015.075-.796 3.75-1.94 7.935-4.908 13.145a72.08 72.08 0 0 1-3.058 4.646zm2.338-37.536c-3.236-11.927-8.969-19.385-11.127-22.191-.558-.727-.627-.879-.741-1.131 1.046.648 13.989 14.868 15.408 32.773.925 11.682-2.059 19.037-3.662 22.989.536-2.507 3.615-19.577.122-32.44m5.92 17.176c-.082.508-.172 1.044-.272 1.615zm.21-1.359-.022.248-.188 1.111c.077-.479.147-.931.21-1.359M106.9 40.112c-.776-1.314-.68-1.567-.622-1.718.064.025 6.686 6.984 7.415 19.164.026.429.037 1 .054 1.429-.009.526-.013 1.123-.018 1.732a71.445 71.445 0 0 0-.049-1.461c.022.651.041 1.279.043 1.956-.008.596-.02 1.192-.042 1.733-.062 1.2-.201 2.634-.479 4.544.425-4.904 1.138-14.797-6.302-27.379m6.762 23.22a.325.325 0 0 1-.002.033zm.019-.385a33.74 33.74 0 0 0 .042-1.733l.006-.495c.01.65-.003 1.202-.045 2.227l-.022.386.019-.385M31.017 18.544c.349-.256.699-.504 1.048-.744-.776.565-1.58 1.173-2.253 1.664.361-.276.836-.652 1.205-.92m2.328-1.643c1.809-1.1 4.253-2.511 6.129-3.484l.709-.333c4.635-1.884 12.388-5.037 24.596-2.982 0 0 .007 0 .013.002l.005.002.013.002c.008 0 .012.002.012.002.009.001.012.001.017.003l.011.001.009.003a40.815 40.815 0 0 1 2.024.405c.019.003.039.008.059.013.022.006.04.009.06.013.02.005.041.01.061.013l.058.016.061.014c.021.003.04.008.061.013.02.006.04.011.061.013.02.007.038.009.06.016l.08.019c.626.177.658.254.734.435-.011.011-.032.025-.043.035-.231.06-.517.136-1.444-.025l-.113-.022-.001-.001h-.001l-.001.001-.002-.001a19.923 19.923 0 0 0-.317-.066 10.972 10.972 0 0 0-.315-.064c-.105-.023-.21-.041-.316-.063l-.316-.059-.317-.058c-.106-.019-.21-.036-.315-.057l-.317-.051-.317-.052c-5.111-.579-18.472-2.098-31.978 7.196.446-.324.883-.634 1.28-.899m50.476-1.965c-2.471-2.263-5.43-3.97-8.345-4.823.578.158 1.191.325 1.689.478l.746.246c2.635 1.151 3.04 1.326 4.771 2.639.088.066.175.135.262.203l.254.21.256.217c.085.072.168.146.253.221.081.075.166.15.248.225.084.078.165.153.249.233l.244.237.245.245-.002.001h.002v.002l.002.001v.002h.001c.278.288.298.386.318.473-.013.004-.03.01-.054.01-.108 0-.364-.098-1.139-.82m-3.167-.471c-1.703-1.06-5.688-3.544-11.403-5.013-3.714-.954-6.67-1.113-8.651-1.101.905-.022 1.844-.04 2.624-.026l1.679.083c11.976 1.458 16.682 6.393 16.718 6.441-.033.014-.078.033-.109.05a4.33 4.33 0 0 1-.858-.434m-6.028-4.583c.218.058.51.135.727.196l.123.035c-.3-.081-.591-.158-.85-.231M60.6 8.351c-.59.014-1.166.032-1.673.045.44-.019.999-.041 1.673-.045" style="fill:url(#b);stroke:none" transform="matrix(1.33333 0 0 -1.33333 -13.512 148.904)"/><path d="M74.747 106.065c17.274-18.796 17.586-73.994 17.586-73.994.101.246 9.213 28.351 2.9 51.132-3.71 13.38-17.953 25.601-24.506 27.844-2.217.396-3.874.621-4.032.631 3.411-.786 2.957-.07 8.052-5.613m12.822-16.876c-1.609 3.546-6.436 11.03-8.656 14.315.844-1.249 8.076-7.364 10.488-12.559 8.092-14.452 6.516-33.309 3.606-51.53.314 15.215.552 36.584-5.438 49.774m-16.842 21.858c.725-.13 1.508-.278 2.318-.442-.845.204-1.72.383-2.63.543.102-.031.205-.065.312-.101M98.906 83.08c2.989-6.122 3.502-23.997 3.946-22.937 4.856 11.614-3.219 40.662-22.883 48.486a50.17 50.17 0 0 1-3.2 1.127 72.114 72.114 0 0 1-3.724.849c10.963-2.629 16.885-9.148 25.861-27.525m-9.429 20.902-.149.106-1.316.804zm11.822-11.79c3.976-6.083 4.837-12.603 5.525-15.353.158-.633.336-.93.336-1.188 0 7.006-2 12.754-2 12.754-1.811 2.764-6.05 9.23-14.615 14.914l-1.068.663c2.73-1.908 7.646-5.406 11.822-11.79m2.031-.948-.158.219-.669.867zm.591-.822-.264.394-.327.428c.258-.357.439-.608.591-.822m.813-1.212c-.363.559-.541.827-.813 1.212zm-89.018-5.728-.294-.624C5.882 58.917 53.77 35.23 54.115 35.109c1.901-.66 1.71.425-7.759 6.703 0 0-37.45 27.743-29.458 43.871l-1.182-2.201m-5.502-20.513-.041-1.477c.015-.532.037-1.244.054-1.777-.023.127-.049.298-.073.427.033-1.255.067-2.272.118-3.198a4.078 4.078 0 0 0-.072.489l.081-1.276c.095-1.199.224-2.162.352-2.953a41.876 41.876 0 0 0-.361 3.74c.341-1.73 1.773-5.559 3.64-8.642l-.208.207c-1.66 1.66-2.523 2.837-2.807 3.226-.079.417-.172.899-.264 1.469.159-1.139.378-2.437.685-4.143v-.003c10.001-36.191 53.755-30.263 56.638-26.837-.21.536-.21.536-1.701.971-13.737 4.007-54.079 15.773-55.706 40.013l.721 7.658c-.803-4.551-.868-4.922-1.056-7.894m1.58-14.723c5.338-7.57 28.734-22.447 48.888-26.704-.187-.02-.433-.047-.62-.065-.067-.006-1.31-.111-3.363-.111-9.508 0-36.437 2.24-44.905 26.88" style="fill:url(#c);stroke:none" transform="matrix(1.33333 0 0 -1.33333 -13.512 148.904)"/><path d="M41.236 86.312c6.178-13.789 6.098-13.641 10.187-20.428 5.896-9.784 19.368-25.299 22.652-25.963l.23.09c.286.484.773.751.398 1.169-25.655 28.503-35.156 53.841-31.355 51.941 3.448-1.723 26.89-27.058 37.846-48.458l1.997 1.121C76.498 58.546 64.99 74.803 64.99 74.803 50.983 93.267 40.236 99.385 40.182 99.408c-.541.195-.999.295-1.377.295-2.487 0-1.488-4.287 2.431-13.391" style="fill:url(#d);stroke:none" transform="matrix(1.33333 0 0 -1.33333 -13.512 148.904)"/><path d="M51.954 106.494c-.512 0-.756-.224-.686-.688.134-.859 1.157-1.667 1.685-2.356 1.741-2.274 4.951-6.772 10.357-15.274l15.675-26.08c7.206-12.275 6.096-17.816 6.096-17.816 3.802 4.829-9.298 33.993-29.187 58.715 23.993-14.35 30.613-47.946 31.96-57.646-.027.193-.904 32.369-17.103 48.973l-3.801 3.324c-7.21 5.607-13.044 8.848-14.995 8.848z" style="fill:url(#e);stroke:none" transform="matrix(1.33333 0 0 -1.33333 -13.512 148.904)"/><path d="M29.433 71.045c7.306-19.181 36.379-36.713 36.54-36.819-8.13 5.457-35.435 26.119-37.832 53.974 13.517-28.705 32.515-52.927 38.523-51.626 0 0-3.985 1.104-11.863 12.956L38.218 75.044c-5.278 8.582-9.734 18.342-10.578 18.543a.731.731 0 0 1-.187.023c-1.773-.001-4.408-5.795 1.98-22.565" style="fill:url(#f);stroke:none" transform="matrix(1.33333 0 0 -1.33333 -13.512 148.904)"/><path d="M73.499 110.605a33.07 33.07 0 0 1-5.513.454c-14.435-.001-26.364-8.948-26.41-9.066 9.143 3.374 13.317 4.914 24.495 5.18 9.928.238 23.825-1.592 33.678-11.65-2.29 2.448-4.545 4.323-6.584 5.872-12.295 8.126-25.76 7.985-34.918 6.426-4.27-.725-7.394-1.754-8.731-2.192 1.138.496 1.86.801 2.967 1.241 10.096 3.295 25.316 5.011 40.625-5.432-.902.683-1.762 1.303-2.563 1.881-4.042 2.513-9.576 5.954-20.161 6.787l-.329.025c-.11.005-.22.014-.328.02-.11.005-.219.013-.328.017-.109.006-.218.012-.329.014-.108.006-.218.011-.327.014l-.327.012a22.636 22.636 0 0 1-.822.011c-2.101-.185-4.211-.27-6.305-.556 6.958 1.382 10.826 1.327 16.546-.238l-1.066.331c-1.363.38-2.361.642-3.27.849l.16-.027c-2.148.48-3.536.721-5.728.988 2.612-.39 3.947-.59 5.568-.961m4.357-1.187-.001.001-.02.006zm15.309-8.023.19-.128c-.082.058-.164.114-.247.171.019-.015.038-.03.057-.043m2.56-3.357c-.017-.182-.051-.518.91-1.53 4.031-4.231 13.469-14.136 16.3-27.759.117-.563.212-1.1.293-1.603-1.328 9.111-4.632 17.388-14.395 28.195 2.955-2.098 5.22-5.193 6.538-7.063-.588.886-1.202 1.781-1.714 2.538-5.319 6.955-7.585 7.224-7.894 7.224-.024 0-.036-.002-.038-.002m-31.793-1.084c-.671 0-1.148-.136-1.393-.415-.214-.244-.319-.835-.016-.954C79.418 89 97.874 71.882 97.874 71.882c13.816-15.812 12.564-27.898 12.21-29.386l.234.289.099.211c.443 1.101.492 1.35.739 2.96-.064-.69.735 3.024-.028 9.229l-.725 3.325c-9.419 22.741-39.25 38.443-46.47 38.444h-.001m19.999-1.742 5.038-3.397c21.853-13.777 24.737-27.541 24.765-32.999l-.03-1.007.043 1.178c.063 3.685.238 13.452-7.305 23.278-4.896 6.379-10.635 9.781-11.273 10.149-5.637 3.242-9.576 4.528-11.267 4.528-1.209 0-1.267-.66.029-1.73m16.039.073-.2.217-.021.021.221-.238m-82.417-8.543-.605-.966-.96-1.79c1.211 2.18 2.721 3.903 4.959 5.679-3.982-3.858-5.497-6.95-6.833-9.677l-.17-.411a66.236 66.236 0 0 1-.872-2.353c2.979 7.913 8.44 12.522 10.285 14.077.884.745.896.911.9.989-.026 0-3.709-1.39-6.704-5.548m3.385-14.24c.324 1.244 1.791 6.894 1.999 8.304 0 0-13.312-19.35-3.175-45.304l.023-.053C25.616 21.53 36.779 13.725 45.308 11.06h.003v-.001h.004l.147.029-.321.135c-.005.003-.011.004-.017.008-2.745 1.125-4.928 2.196-7.976 4.327 1.456-.928 2.105-.853 2.346-.824-.056.267-.056.267-1.047 1.009-5.6 4.196-13.127 12.271-17.171 26.908 0 0-6.143 21.927 8.087 46.22 0 0-5.858-6.683-8.425-16.369m85.047 14.841-.365.582c-.078.112-.161.23-.249.353.211-.316.417-.629.614-.935m.644-1.029c-.196.325-.415.672-.644 1.029zm-90.913-2.832.272.504a18.548 18.548 0 0 1-.272-.504m-2.998-7.251c.11.305.23.643.354.993a29.621 29.621 0 0 1-.354-.993m-1.327-4.835-.121-.533c-.594-2.881-.611-3.07-1.056-7.894l3.131 13.348c-.153-.065-.655-.674-1.954-4.921m7.504-38.807c.984-2.001 2.296-4.495 7.542-10.143.946-.965 2.354-2.096 3.375-2.982 1.03-.812 2.473-1.799 3.533-2.563 1.796-1.117 4.26-2.495 6.129-3.484-7.291 3.925-14.791 9.296-20.297 21.926 0 0-6.617 11.974-4.004 36.519 0 0-5.74-20.059 3.722-39.273m94.733 31.236-.07.829c-.08.681-.176 1.527-.33 2.492.159-1.093.29-2.197.4-3.321m-49.206-9.804s5.23-10.851 8.552-15.731c3.323-4.88 14.634-20.688 17.759-21.175l.234.076 1.123 1.303c-18.949 24.63-20.023 27.654-23.589 37.68C89.273 35.318 94.69 22.428 94.058 19.453l-.003-.006c1.31 1.074 2.567 1.106 1.564 4.39-3.538 9.614-10.715 20.26-10.715 20.26-11.455 14.598-20.07 20.2-20.118 20.215-.506.151-.939.226-1.304.226-2.388 0-1.794-3.278.94-10.517m-54.288 6.453.001-.022c.08-2.929.177-4.662.368-6.299-.171 1.79-.144 3.151-.12 4.379.005.174.028 1.693-.138 2.294a.876.876 0 0 1-.111-.352m.066-3.041.049-.779c-.02.337-.04.695-.055.988 0-.064.003-.147.006-.209m.081-1.276-.032.497.032-.497m2.341-11.842c-.66 2.193-1.129 4.048-1.463 5.647.051-.286.105-.585.159-.901l.061-.268.003-.009.61-2.446c1.468-4.963 2.638-7.521 4.335-10.672-.257.548-.577 1.272-1.071 2.389l-.412 1.104c-2.169 5.558-3.133 11.48-2.959 17.444-.785-6.172.06-9.564.737-12.288m-1.463 5.647c-.3 1.688-.506 2.91-.656 4.191.113-1.182.313-2.551.656-4.191m18.662-3.205s-1.583-.712-.95-4.196c.757-4.163 5.61-32.066 29.855-34.153l.201-.012a83.732 83.732 0 0 1 3.19-.065c-2.235.038-4.714.244-7.039 1.067.212-.015.492-.016.707-.02l.163.366h-.004v.001h-.002v.001h-.003v.003h-.002C33.763 16.783 31.215 42.451 31.74 43.581c7.398-8.894 11.76-20.074 20.873-27.675 8.823-7.357 16.953-6.674 20.013-6.416l2 .392c.765.194 1.777.494 2.539.709-3.534-.808-15.593 1.253-22.738 7.205-5.961 4.963-18.336 24.425-18.336 24.425-2.98 3.912-4.039 4.874-5.014 4.874-.392 0-.771-.156-1.256-.338m80.202-4.336c-.009-.126.02-.098.061.075-.026-.03-.047-.058-.061-.075m0 0c-.02-.024-.023-.029 0 0m-92.386-9.144c-.473.856-.907 1.639-1.31 2.389.442-.945.691-1.368 1.31-2.389M63.224 8.325l-1.107.006c.376-.006.746-.008 1.107-.006" style="fill:url(#g);stroke:none" transform="matrix(1.33333 0 0 -1.33333 -13.512 148.904)"/><path d="M78.184 75.942c-4.005-.001 2.339-9.219 5.302-13.523 3.925-5.7 14.349-20.843 16.035-31.51 0 0 1.065-4.973-.285-7.219 3.09 5.143 4.609 15.483-13.662 41.19-3.938 5.541-3.944 5.559-4.201 6.421 23.967-12.91 26.314-27.683 24.06-37.806.004.004.029.04.168.352 8.182 18.51-14.857 35.474-14.857 35.474-6.997 4.819-10.789 6.621-12.559 6.621h-.001m27.248-42.448v-.002h.001l-.001.001.001.002-.001-.001m-.001-.003v.001zm0-.001v.001zm-.001-.002.001.001z" style="fill:url(#h);stroke:none" transform="matrix(1.33333 0 0 -1.33333 -13.512 148.904)"/><path d="m41.6 57.424 1.232-5.437c9.196-24.899 23.812-36.458 34.726-39.589l2.118-.356.003-.001v-.001l.003.001.283.005c.35.059.806.172 1.146.272l.262.106c.19.093.355.357.438.552C69.53 14.98 44.486 40.99 42.503 71.304 56.549 39.819 77.171 9.88 88.407 15.567l.004.003.003.001.002.001h.001l.005.003h.002l.003.002.164.1c.09.111.213.263.301.375h-.003l-.002-.001c-5.828.442-10.959 5.503-17.017 13.267L53.155 56.786c-5.542 9.443-8.3 14.776-9.636 17.586-.404.853-.678 2.243-1.443 2.797a.7.7 0 0 1-.407.152c-1.681 0-2.235-8.458-.069-19.897" style="fill:url(#i);stroke:none" transform="matrix(1.33333 0 0 -1.33333 -13.512 148.904)"/><g aria-label="GAZ NATUREL ÉLECTRICITÉ RENOUVELABLE BOIS" style="font-variant:normal;font-weight:500;font-stretch:normal;font-size:12px;font-family:'Nevo Medium';-inkscape-font-specification:Nevo-Medium;writing-mode:lr-tb;fill:#319f59;fill-opacity:1;fill-rule:nonzero;stroke:none;stroke-width:.99999994"><path d="M318.986-17.586v2.904c-.516.552-1.236.888-2.124.888-1.98 0-3.024-1.68-3.024-3.732 0-2.028 1.044-3.708 3.036-3.708.864 0 1.716.336 2.328 1.128l.756-.636c-.708-.912-1.788-1.452-3.108-1.452-2.676 0-4.104 2.232-4.104 4.68 0 2.436 1.392 4.692 4.116 4.692 1.332 0 2.4-.552 3.084-1.452v-3.396zM329.006-12.894c-.444-3.084-1.968-6.432-3.408-9.24h-1.02c-1.44 2.808-2.952 6.156-3.408 9.24h1.008c.132-.852.336-1.74.6-2.616h4.62c.264.876.48 1.764.6 2.616zm-5.916-3.552c.552-1.608 1.272-3.192 2.004-4.68.732 1.488 1.452 3.072 2.004 4.68zM336.686-22.134h-6.024l.084.96h4.776c-.744 2.592-4.092 4.152-5.316 7.308v.972h6.624l-.084-.96h-5.292c1.236-2.964 4.392-4.2 5.232-7.26zM349.046-22.134l-1.008.084v7.992c-1.608-1.812-3.72-7.44-5.04-8.076h-.996v9.24h1.008l-.012-7.884c1.524 2.148 3.384 7.296 5.04 7.884h1.008zM358.322-12.894c-.444-3.084-1.968-6.432-3.408-9.24h-1.02c-1.44 2.808-2.952 6.156-3.408 9.24h1.008c.132-.852.336-1.74.6-2.616h4.62c.264.876.48 1.764.6 2.616zm-5.916-3.552c.552-1.608 1.272-3.192 2.004-4.68.732 1.488 1.452 3.072 2.004 4.68zM364.61-21.27l.084-.864h-6.168l-.084.864h2.628v8.376h1.008v-8.376zM369.194-12.834c-1.608 0-3.36-.96-3.36-3.036v-6.18l1.008-.084v6.168c0 1.236.876 2.136 2.352 2.136 1.308 0 2.292-.912 2.292-2.136v-6.084l1.008-.084v6.264c0 2.028-1.8 3.036-3.3 3.036zM379.082-12.894h1.08l-1.644-3.972c.828-.504 1.428-1.332 1.428-2.448.012-1.968-1.524-2.88-3.216-2.88-.864 0-1.56.048-2.616.3v9h1.008v-3.432c.336.036.72.06 1.224.048.408 0 .828-.06 1.224-.18zm-3.96-8.136c.6-.132 1.2-.168 1.608-.168 1.2 0 2.184.588 2.184 1.884 0 1.224-1.176 2.028-2.568 2.028-.492.012-.888-.024-1.224-.048zM387.458-13.842h-4.86v-3.276h4.284l.084-.936h-4.368v-3.132h4.644l.084-.948h-5.736v9.24h5.784zM394.718-13.842h-4.812v-8.292l-1.008.084v9.156h5.748z" style="fill:#04a5ab;fill-opacity:1;stroke-width:.99999994" transform="matrix(1.33333 0 0 1.33333 -13.512 148.904)"/><path d="m133.538-22.89 1.68-1.248h-1.236l-1.308 1.248zm2.832 9.048h-4.86v-3.276h4.284l.084-.936h-4.368v-3.132h4.644l.084-.948h-5.736v9.24h5.784zM143.63-13.842h-4.812v-8.292l-1.008.084v9.156h5.748zM150.698-13.842h-4.86v-3.276h4.284l.084-.936h-4.368v-3.132h4.644l.084-.948h-5.736v9.24h5.784zM158.834-20.742c-.708-.912-1.788-1.452-3.108-1.452-2.676 0-4.104 2.232-4.104 4.68 0 2.436 1.404 4.692 4.116 4.692 1.332 0 2.4-.552 3.096-1.452l-.732-.684c-.528.708-1.356 1.164-2.364 1.164-1.98 0-3.024-1.68-3.024-3.72s1.044-3.72 3.012-3.72c.888 0 1.752.336 2.352 1.128zM165.818-21.27l.084-.864h-6.168l-.084.864h2.628v8.376h1.008v-8.376zM172.07-12.894h1.08l-1.644-3.972c.828-.504 1.428-1.332 1.428-2.448.012-1.968-1.524-2.88-3.216-2.88-.864 0-1.56.048-2.616.3v9h1.008v-3.432c.336.036.72.06 1.224.048.408 0 .828-.06 1.224-.18zm-3.96-8.136c.6-.132 1.2-.168 1.608-.168 1.2 0 2.184.588 2.184 1.884 0 1.224-1.176 2.028-2.568 2.028-.492.012-.888-.024-1.224-.048zM175.766-22.134l-1.008.084v9.156h1.008zM184.562-20.742c-.708-.912-1.788-1.452-3.108-1.452-2.676 0-4.104 2.232-4.104 4.68 0 2.436 1.404 4.692 4.116 4.692 1.332 0 2.4-.552 3.096-1.452l-.732-.684c-.528.708-1.356 1.164-2.364 1.164-1.98 0-3.024-1.68-3.024-3.72s1.044-3.72 3.012-3.72c.888 0 1.752.336 2.352 1.128zM187.165-22.134l-1.008.084v9.156h1.008zM194.833-21.27l.084-.864h-6.168l-.084.864h2.628v8.376h1.008v-8.376zM199.153-22.89l1.68-1.248h-1.236l-1.308 1.248zm2.832 9.048h-4.86v-3.276h4.284l.084-.936h-4.368v-3.132h4.644l.084-.948h-5.736v9.24h5.784zM212.233-12.894h1.08l-1.644-3.972c.828-.504 1.428-1.332 1.428-2.448.012-1.968-1.524-2.88-3.216-2.88-.864 0-1.56.048-2.616.3v9h1.008v-3.432c.336.036.72.06 1.224.048.408 0 .828-.06 1.224-.18zm-3.96-8.136c.6-.132 1.2-.168 1.608-.168 1.2 0 2.184.588 2.184 1.884 0 1.224-1.176 2.028-2.568 2.028-.492.012-.888-.024-1.224-.048zM220.608-13.842h-4.86v-3.276h4.284l.084-.936h-4.368v-3.132h4.644l.084-.948h-5.736v9.24h5.784zM229.092-22.134l-1.008.084v7.992c-1.608-1.812-3.72-7.44-5.04-8.076h-.996v9.24h1.008l-.012-7.884c1.524 2.148 3.384 7.296 5.04 7.884h1.008zM238.728-17.526c0-2.436-1.416-4.668-4.104-4.668-2.724 0-4.128 2.232-4.128 4.668 0 2.448 1.404 4.704 4.128 4.704 2.688 0 4.104-2.256 4.104-4.704zm-4.104-3.708c1.98 0 3.024 1.68 3.024 3.708 0 2.028-1.044 3.732-3.024 3.732-1.992 0-3.036-1.68-3.036-3.732 0-2.028 1.044-3.708 3.036-3.708zM243.312-12.834c-1.608 0-3.36-.96-3.36-3.036v-6.18l1.008-.084v6.168c0 1.236.876 2.136 2.352 2.136 1.308 0 2.292-.912 2.292-2.136v-6.084l1.008-.084v6.264c0 2.028-1.8 3.036-3.3 3.036zM254.58-22.134c-.636 2.724-1.68 5.64-2.904 8.22-1.224-2.58-2.268-5.496-2.916-8.22h-1.008c.732 3.084 1.98 6.432 3.42 9.24h1.008c1.44-2.808 2.688-6.156 3.408-9.24zM262.656-13.842h-4.86v-3.276h4.284l.084-.936h-4.368v-3.132h4.644l.084-.948h-5.736v9.24h5.784zM269.916-13.842h-4.812v-8.292l-1.008.084v9.156h5.748zM278.712-12.894c-.444-3.084-1.968-6.432-3.408-9.24h-1.02c-1.44 2.808-2.952 6.156-3.408 9.24h1.008c.132-.852.336-1.74.6-2.616h4.62c.264.876.48 1.764.6 2.616zm-5.916-3.552c.552-1.608 1.272-3.192 2.004-4.68.732 1.488 1.452 3.072 2.004 4.68zM286.128-15.486c0-1.38-.636-2.028-1.668-2.292a2.245 2.245 0 0 0 1.176-2.016c0-1.416-1.152-2.4-2.796-2.4-.996 0-1.872.084-2.688.3v8.724c.948.264 1.824.348 2.82.348 2.016 0 3.168-1.008 3.156-2.664zm-3.276-5.76c1.128 0 1.836.552 1.836 1.5 0 1.008-.672 1.728-2.04 1.728h-1.536v-3.12c.492-.096 1.008-.108 1.74-.108zm.12 7.5c-.444 0-1.164-.012-1.86-.156v-3.312h1.752c1.428 0 2.304.396 2.304 1.644 0 1.2-.804 1.824-2.196 1.824zM293.208-13.842h-4.812v-8.292l-1.008.084v9.156h5.748zM300.276-13.842h-4.86v-3.276h4.284l.084-.936h-4.368v-3.132h4.644l.084-.948h-5.736v9.24h5.784z" style="fill:#90c33e;fill-opacity:1;stroke-width:.99999994" transform="matrix(1.33333 0 0 1.33333 -13.512 148.904)"/><path d="M413.33-15.486c0-1.38-.636-2.028-1.668-2.292a2.245 2.245 0 0 0 1.176-2.016c0-1.416-1.152-2.4-2.796-2.4-.996 0-1.872.084-2.688.3v8.724c.948.264 1.824.348 2.82.348 2.016 0 3.168-1.008 3.156-2.664zm-3.276-5.76c1.128 0 1.836.552 1.836 1.5 0 1.008-.672 1.728-2.04 1.728h-1.536v-3.12c.492-.096 1.008-.108 1.74-.108zm.12 7.5c-.444 0-1.164-.012-1.86-.156v-3.312h1.752c1.428 0 2.304.396 2.304 1.644 0 1.2-.804 1.824-2.196 1.824zM422.545-17.526c0-2.436-1.416-4.668-4.104-4.668-2.724 0-4.128 2.232-4.128 4.668 0 2.448 1.404 4.704 4.128 4.704 2.688 0 4.104-2.256 4.104-4.704zm-4.104-3.708c1.98 0 3.024 1.68 3.024 3.708 0 2.028-1.044 3.732-3.024 3.732-1.992 0-3.036-1.68-3.036-3.732 0-2.028 1.044-3.708 3.036-3.708zM425.137-22.134l-1.008.084v9.156h1.008zM431.989-21.738c-.552-.228-1.368-.456-2.124-.456-1.452 0-3 .78-3 2.496 0 1.008.636 1.824 2.124 2.352 1.368.492 2.4.996 2.4 1.836 0 1.008-.732 1.68-2.184 1.68-.636 0-1.668-.216-2.232-.6l-.252.96c.564.384 1.644.648 2.484.648 1.632 0 3.216-.72 3.216-2.616 0-1.14-.792-1.944-2.508-2.568-1.452-.54-1.98-.948-1.98-1.68 0-.924.888-1.548 1.932-1.548.564 0 1.272.18 1.836.396z" style="fill:#189b5e;fill-opacity:1;stroke-width:.99999994" transform="matrix(1.33333 0 0 1.33333 -13.512 148.904)"/></g></svg>